<?xml version="1.0" encoding="UTF-8"?>
<svg width="29px" height="18px" viewBox="0 0 29 18" version="1.1" xmlns="http://www.w3.org/2000/svg" xmlns:xlink="http://www.w3.org/1999/xlink">
    <!-- Generator: sketchtool 41.2 (35397) - http://www.bohemiancoding.com/sketch -->
    <title>C9E72C16-2987-4DEC-A43B-989EA4FF9285</title>
    <desc>Created with sketchtool.</desc>
    <defs></defs>
    <g id="Visual-Design" stroke="none" stroke-width="1" fill="none" fill-rule="evenodd">
        <g id="Fotomat_mobileLanding" transform="translate(-160.000000, -15.000000)" fill="#4A4A4A">
            <g id="ic_aboutUs" transform="translate(160.000000, 15.000000)">
                <path d="M19.2857143,10.2857143 C18.9128571,10.2857143 18.4885714,10.2857143 18.0385714,10.35 C19.53,11.43 20.5714286,12.8571429 20.5714286,14.7857143 L20.5714286,18 L28.2857143,18 L28.2857143,14.7857143 C28.2857143,11.79 22.2814286,10.2857143 19.2857143,10.2857143 L19.2857143,10.2857143 Z M9,10.2857143 C6.00428571,10.2857143 0,11.79 0,14.7857143 L0,18 L18,18 L18,14.7857143 C18,11.79 11.9957143,10.2857143 9,10.2857143 L9,10.2857143 Z M9,7.71428571 C11.1302412,7.71428571 12.8571429,5.98738404 12.8571429,3.85714286 C12.8571429,1.72690168 11.1302412,0 9,0 C6.86975882,0 5.14285714,1.72690168 5.14285714,3.85714286 C5.14285714,5.98738404 6.86975882,7.71428571 9,7.71428571 L9,7.71428571 Z M19.2857143,7.71428571 C21.4159555,7.71428571 23.1428571,5.98738404 23.1428571,3.85714286 C23.1428571,1.72690168 21.4159555,0 19.2857143,0 C17.1554731,0 15.4285714,1.72690168 15.4285714,3.85714286 C15.4285714,5.98738404 17.1554731,7.71428571 19.2857143,7.71428571 Z" id="Shape"></path>
            </g>
        </g>
    </g>
</svg>