<?xml version="1.0" encoding="UTF-8"?>
<svg width="24px" height="22px" viewBox="0 0 24 22" version="1.1" xmlns="http://www.w3.org/2000/svg" xmlns:xlink="http://www.w3.org/1999/xlink">
    <!-- Generator: sketchtool 41.2 (35397) - http://www.bohemiancoding.com/sketch -->
    <title>2C7427D9-ECE1-4C4E-8060-6394F9CC28E7</title>
    <desc>Created with sketchtool.</desc>
    <defs></defs>
    <g id="Visual-Design" stroke="none" stroke-width="1" fill="none" fill-rule="evenodd">
        <g id="Fotomat_mobileLanding" transform="translate(-89.000000, -13.000000)" fill="#4A4A4A">
            <g id="ic_productDetail" transform="translate(89.000000, 13.000000)">
                <path d="M2.4,2.4 L6,2.4 L8.4,0 L15.6,0 L18,2.4 L21.6,2.4 C22.9254834,2.4 24,3.4745166 24,4.8 L24,19.2 C24,20.5254834 22.9254834,21.6 21.6,21.6 L2.4,21.6 C1.0745166,21.6 0,20.5254834 0,19.2 L0,4.8 C-2.66453526e-16,3.4745166 1.0745166,2.4 2.4,2.4 L2.4,2.4 Z M12,6 C8.6862915,6 6,8.6862915 6,12 C6,15.3137085 8.6862915,18 12,18 C15.3137085,18 18,15.3137085 18,12 C18,8.6862915 15.3137085,6 12,6 L12,6 Z M12,8.4 C13.9882251,8.4 15.6,10.0117749 15.6,12 C15.6,13.9882251 13.9882251,15.6 12,15.6 C10.0117749,15.6 8.4,13.9882251 8.4,12 C8.4,10.0117749 10.0117749,8.4 12,8.4 Z" id="Shape"></path>
            </g>
        </g>
    </g>
</svg>